<svg xmlns="http://www.w3.org/2000/svg" viewBox="0 0 32 32" width="32" height="32">
  <defs>
    <linearGradient id="bgGradient" x1="0%" y1="0%" x2="100%" y2="100%">
      <stop offset="0%" style="stop-color:#667eea;stop-opacity:1" />
      <stop offset="100%" style="stop-color:#764ba2;stop-opacity:1" />
    </linearGradient>
    <linearGradient id="nodeGradient" x1="0%" y1="0%" x2="100%" y2="100%">
      <stop offset="0%" style="stop-color:#f093fb;stop-opacity:1" />
      <stop offset="100%" style="stop-color:#f5576c;stop-opacity:1" />
    </linearGradient>
    <filter id="glow">
      <feGaussianBlur stdDeviation="2" result="coloredBlur"/>
      <feMerge> 
        <feMergeNode in="coloredBlur"/>
        <feMergeNode in="SourceGraphic"/>
      </feMerge>
    </filter>
  </defs>
  
  <!-- Background circle -->
  <circle cx="16" cy="16" r="15" fill="url(#bgGradient)" stroke="#ffffff" stroke-width="1" opacity="0.9"/>
  
  <!-- Neural network nodes -->
  <circle cx="12" cy="10" r="2" fill="url(#nodeGradient)" filter="url(#glow)"/>
  <circle cx="20" cy="10" r="2" fill="url(#nodeGradient)" filter="url(#glow)"/>
  <circle cx="8" cy="16" r="2" fill="url(#nodeGradient)" filter="url(#glow)"/>
  <circle cx="16" cy="16" r="2.5" fill="url(#nodeGradient)" filter="url(#glow)"/>
  <circle cx="24" cy="16" r="2" fill="url(#nodeGradient)" filter="url(#glow)"/>
  <circle cx="12" cy="22" r="2" fill="url(#nodeGradient)" filter="url(#glow)"/>
  <circle cx="20" cy="22" r="2" fill="url(#nodeGradient)" filter="url(#glow)"/>
  
  <!-- Neural network connections -->
  <line x1="12" y1="10" x2="8" y2="16" stroke="#ffffff" stroke-width="1" opacity="0.6"/>
  <line x1="12" y1="10" x2="16" y2="16" stroke="#ffffff" stroke-width="1" opacity="0.6"/>
  <line x1="20" y1="10" x2="16" y2="16" stroke="#ffffff" stroke-width="1" opacity="0.6"/>
  <line x1="20" y1="10" x2="24" y2="16" stroke="#ffffff" stroke-width="1" opacity="0.6"/>
  <line x1="8" y1="16" x2="12" y2="22" stroke="#ffffff" stroke-width="1" opacity="0.6"/>
  <line x1="8" y1="16" x2="20" y2="22" stroke="#ffffff" stroke-width="1" opacity="0.6"/>
  <line x1="16" y1="16" x2="12" y2="22" stroke="#ffffff" stroke-width="1" opacity="0.6"/>
  <line x1="16" y1="16" x2="20" y2="22" stroke="#ffffff" stroke-width="1" opacity="0.6"/>
  <line x1="24" y1="16" x2="12" y2="22" stroke="#ffffff" stroke-width="1" opacity="0.6"/>
  <line x1="24" y1="16" x2="20" y2="22" stroke="#ffffff" stroke-width="1" opacity="0.6"/>
  
  <!-- Central AI core -->
  <circle cx="16" cy="16" r="4" fill="none" stroke="#ffffff" stroke-width="1.5" opacity="0.8"/>
  <circle cx="16" cy="16" r="1" fill="#ffffff"/>
  
  <!-- Data flow lines -->
  <path d="M 4 8 Q 8 12 12 10" stroke="#f093fb" stroke-width="1" fill="none" opacity="0.7"/>
  <path d="M 28 8 Q 24 12 20 10" stroke="#f093fb" stroke-width="1" fill="none" opacity="0.7"/>
  <path d="M 4 24 Q 8 20 12 22" stroke="#f093fb" stroke-width="1" fill="none" opacity="0.7"/>
  <path d="M 28 24 Q 24 20 20 22" stroke="#f093fb" stroke-width="1" fill="none" opacity="0.7"/>
</svg>
